<?xml version="1.0" encoding="utf-8"?>
<!-- Generator: Adobe Illustrator 24.0.0, SVG Export Plug-In . SVG Version: 6.00 Build 0)  -->
<svg version="1.1" id="Слой_1" xmlns="http://www.w3.org/2000/svg" xmlns:xlink="http://www.w3.org/1999/xlink" x="0px" y="0px"
	 viewBox="0 0 400 600" style="enable-background:new 0 0 400 600;" xml:space="preserve">
<style type="text/css">
	.st0{fill:#C7D36F;}
	.st1{fill:#9EB23B;}
</style>
<g>
	<g>
		<path class="st0" d="M-122.2,74.5c22.8,34.2,48.3,67,76.1,97.2c22.3,24.2,46.3,46.8,70.5,69c52.3,48.2,105.2,96.3,164.5,135.8
			c14.3,9.5,29.1,18.2,44.3,26.4c14,7.5,28.1,15,40.8,24.7c-7.3-5.6-14.6-11.3-21.9-16.9c7.2,5.6,13.7,11.7,19.4,18.8
			c-5.6-7.3-11.3-14.6-16.9-21.9c10.1,13.1,17.2,28.6,23.7,43.7c-3.6-8.6-7.3-17.2-10.9-25.8c2.6,6.2,4.7,12.5,5.8,19.3
			c-1.3-9.6-2.6-19.1-3.9-28.7c0.6,5,0.5,9.8,0,14.7c1.3-9.6,2.6-19.1,3.9-28.7c-2.3,16.6-7.5,33.9-13.9,49.4
			c3.6-8.6,7.3-17.2,10.9-25.8c-2.9,6.9-6.5,13.5-11,19.5c5.6-7.3,11.3-14.6,16.9-21.9c-2.8,3.5-5.9,6.7-9.4,9.5
			c7.3-5.6,14.6-11.3,21.9-16.9c-11.2,8.6-22.4,16.1-33.5,25.2c-1.8,1.5-3.6,3-5.2,4.8c-7.5,8.6-14.2,18.1-21.1,27.2
			c5.6-7.3,11.3-14.6,16.9-21.9c-1.6,2-3.2,3.9-5.1,5.5c7.3-5.6,14.6-11.3,21.9-16.9c-1.7,1.3-3.4,2.2-5.4,3.1
			c8.6-3.6,17.2-7.3,25.8-10.9c-4,1.5-8.1,2.2-12.3,2.8c9.6-1.3,19.1-2.6,28.7-3.9c-40.6,5.4-81.7,5.3-122.3-0.2
			c9.6,1.3,19.1,2.6,28.7,3.9c-40.6-5.6-80.3-16.4-118-32.3c8.6,3.6,17.2,7.3,25.8,10.9c-11.9-5.1-25.2-10-35.6-17.9
			c7.3,5.6,14.6,11.3,21.9,16.9c-1.7-1.4-3.3-2.9-4.7-4.6c5.6,7.3,11.3,14.6,16.9,21.9c-2.4-3.2-4.2-6.7-5.8-10.4
			c3.6,8.6,7.3,17.2,10.9,25.8C103.1,411.9,90.5,378,78.5,344c-6-16.9-11.8-34-17.1-51.1c-2.7-8.6-5.2-17.2-7.7-25.8
			c-2.3-8.2-5.3-16.7-6.4-25.1c1.3,9.6,2.6,19.1,3.9,28.7c-0.1-1.3-0.1-2.5-0.1-3.8c-1.3,9.6-2.6,19.1-3.9,28.7
			c0.2-1.2,0.4-2.2,0.9-3.3c-3.6,8.6-7.3,17.2-10.9,25.8c0.2-0.3,0.4-0.6,0.6-0.9c-5.6,7.3-11.3,14.6-16.9,21.9
			c0.2-0.3,0.5-0.5,0.7-0.8c-7.3,5.6-14.6,11.3-21.9,16.9c0.6-0.5,1.2-0.9,1.9-1.1c-8.6,3.6-17.2,7.3-25.8,10.9
			c0.5-0.1,1-0.2,1.4-0.3c-9.6,1.3-19.1,2.6-28.7,3.9c0.5,0,1,0,1.5,0c-9.6-1.3-19.1-2.6-28.7-3.9c7.7,1.2,15.3,4.2,22.4,7.1
			c-8.6-3.6-17.2-7.3-25.8-10.9c21.6,9.1,40.7,22.7,59.2,37c-7.3-5.6-14.6-11.3-21.9-16.9c31.8,24.7,62.7,50.2,97.3,71
			c25.6,15.3,52,29.5,75.7,47.6c-7.3-5.6-14.6-11.3-21.9-16.9c12.5,9.6,24,20.4,33.7,32.8c-5.6-7.3-11.3-14.6-16.9-21.9
			c5.4,7,10.5,14.5,14.1,22.6c-3.6-8.6-7.3-17.2-10.9-25.8c0.6,1.6,1,3.1,1.3,4.8c-1.3-9.6-2.6-19.1-3.9-28.7c0.1,1,0.1,2,0,3
			c1.3-9.6,2.6-19.1,3.9-28.7c-0.2,1.4-0.5,2.5-1,3.8c3.6-8.6,7.3-17.2,10.9-25.8c-0.6,1.2-1.2,2.3-2,3.4
			c5.6-7.3,11.3-14.6,16.9-21.9c-1.8,2.2-3.7,4-6,5.8c7.3-5.6,14.6-11.3,21.9-16.9c-11.8,8.6-25.6,14.9-38.5,21.8
			c-13.8,7.4-27.7,14.6-41.8,21.5c-28.1,13.9-56.6,27-85.4,39.2c8.6-3.6,17.2-7.3,25.8-10.9c-17.3,7.3-34.8,14.3-52.4,21
			c-14.1,3.3-26.3,9.8-36.7,19.3c-11.8,7.6-21,17.7-27.8,30.3c-7.9,12.4-12.2,25.8-12.8,40.2c-3.2,14.4-2.6,28.7,1.9,43.1
			c3.6,8.6,7.3,17.2,10.9,25.8c9.6,16.2,22.5,29.1,38.7,38.7c8.6,3.6,17.2,7.3,25.8,10.9c19.1,5.1,38.3,5.1,57.4,0
			c16.7-3.9,33.6-6.9,50.6-9.3c-9.6,1.3-19.1,2.6-28.7,3.9c81.1-10.9,163.1-4.8,243.8,6c-9.6-1.3-19.1-2.6-28.7-3.9
			c33.7,4.5,67.2,9.9,100.7,15.3c14.4,4.5,28.7,5.1,43.1,1.9c14.4-0.7,27.8-4.9,40.2-12.8c12.6-6.8,22.7-16.1,30.3-27.8
			c9.5-10.4,16-22.7,19.3-36.7c1.3-9.6,2.6-19.1,3.9-28.7c-0.1-19.5-5-37.7-14.7-54.5c-5.6-7.3-11.3-14.6-16.9-21.9
			c-13.5-13.4-29.4-22.6-47.7-27.8c-12.1-4.2-23.9-8.7-35.7-13.7c8.6,3.6,17.2,7.3,25.8,10.9c-100-42.5-185.9-110.6-278.1-166.9
			c-27.3-16.7-55-32.8-80.4-52.3c7.3,5.6,14.6,11.3,21.9,16.9c-17.5-13.6-33.6-28.8-47.2-46.3c5.6,7.3,11.3,14.6,16.9,21.9
			c-9.1-12-16.9-24.8-22.7-38.7c3.6,8.6,7.3,17.2,10.9,25.8c-2.6-6.4-4.9-13-6.6-19.8C30,217.7,23.6,205.4,14,195
			c-7.6-11.8-17.7-21-30.3-27.8c-12.4-7.9-25.8-12.2-40.2-12.8c-14.4-3.2-28.7-2.6-43.1,1.9c-8.6,3.6-17.2,7.3-25.8,10.9
			c-16.2,9.6-29.1,22.5-38.7,38.7c-3.6,8.6-7.3,17.2-10.9,25.8c-5.1,19.1-5.1,38.3,0,57.4c4.5,17.3,12.1,33.8,19.4,50
			c3.8,8.3,8.3,16.2,13.3,23.8c14.7,22,31.7,43.5,51.2,61.5c36.1,33.3,77.8,59,119.5,84.4c67.3,41,130.9,87.9,199.1,127.3
			c45.6,26.3,93.8,48.8,143.5,66c19.1-69.4,38.3-138.9,57.4-208.3c-60.8-9.8-121.7-19.3-182.9-25.5c-51.9-5.2-104.3-7.4-156.3-3.3
			c-38,3-76.1,8.2-113.3,16.8c19.1,69.4,38.3,138.9,57.4,208.3c78.1-29.6,154.6-64,227.6-104.7c3.6-2,7.3-4,10.8-6.1
			c1.4-0.9,2.8-1.7,4.2-2.7c8.7-6,17.9-12.8,25.7-20c1.2-1.1,2.2-2.3,3.2-3.5c6.4-7.7,13.7-15.9,18.6-24.7
			c2.1-3.8,9.8-22.1,11.2-26.4c0.3-0.8,0.6-1.6,0.8-2.5c3-10.6,4.3-22,4.1-33c-0.1-7.1-1.7-23.4-5.1-33.6c-2.5-7.4-8-19.5-11.2-26.6
			c-0.5-1-1-2-1.5-3.1c-1.7-3.2-3.6-6.4-5.6-9.5c-8.6-13.3-18.6-25.9-28.9-37.8c-15.1-17.4-34.2-31.1-52.4-44.9
			c-11.6-8.7-23.8-16.5-36.2-23.9c-29.3-17.6-58.8-34.2-86-55.1c7.3,5.6,14.6,11.3,21.9,16.9c-24.2-18.8-47.7-38.7-73.2-55.8
			c-8.8-5.9-17.8-11.3-27.4-15.8c-17-8.1-35.3-16.8-53.9-21c-21.5-4.9-40.3-6-61.8,0.1c-16.1,4.5-18.7,6.7-27.7,12
			c-5.4,3.2-18,13.4-22.6,17.7c-14.5,13.6-16.3,20.2-22.9,35.7c-2,4.7-4.7,9.9-6.2,15.1c-6.7,23.7-4,38.8-0.1,62.4
			c1.9,11.9,6,23.7,9.4,35.3c7.3,24.9,15.6,49.6,24.5,74.1c8.8,24.5,18.2,48.8,27.6,73c2.3,5.9,4.6,11.9,6.9,17.8
			c5.3,13.2,9.7,27.6,18,39.4c14.2,20.1,27.2,34.4,49,47c5.2,3,10.8,5.5,16.3,8.1c29.6,13.7,60.1,26.4,91.5,35.4
			c32.3,9.3,65.1,14,98.3,18.2c26.5,3.4,53.2,4.5,79.9,3.2c22.7-1.1,45.2-4.2,67.7-7.4c14.4-2.1,28.2-7.8,40.9-15
			c4.6-2.6,10.5-7.9,13.5-10.2c4.5-3.5,10.2-7,14.1-11.6c7.7-8.9,14.4-18.5,21.5-27.9c-5.6,7.3-11.3,14.6-16.9,21.9
			c2-2.5,4.2-4.6,6.6-6.6c-7.3,5.6-14.6,11.3-21.9,16.9c11.7-8.8,23.4-16.4,34.7-26.2c10.6-9.2,18.9-21.6,26.9-32.8
			c2.9-4.1,5.3-8.4,7.4-12.9c6.1-13,11.9-26.4,16.5-40c3.8-11.3,7.3-23.1,9.4-34.8c2.7-15,6.1-30.8,4.8-46.2
			c-0.8-9.8-2.5-20.8-4.1-30.5c-0.3-1.8-0.6-3.6-1-5.4c-0.8-3.6-2-7-3.4-10.5c-7.7-19.6-16.1-39.7-26.4-58.2
			c-7.3-13.1-17.2-25-26.5-36.6c-3.7-4.6-7.7-8.8-12-12.8c-14.7-13.2-30.9-25.3-48-35.4c-10-5.9-20.4-11.2-30.6-16.8
			c-25.3-13.9-49.2-30.3-72.1-48c7.3,5.6,14.6,11.3,21.9,16.9c-29.2-22.6-56.6-47.2-83.8-72.1c-28.5-26.1-57.2-52-83.9-80
			C100.6,12.7,86.2-3.9,72.7-21.3C78.3-14,83.9-6.7,89.6,0.6c-8.8-11.4-17.2-23.1-25.2-35.1c-6.8-12.6-16.1-22.7-27.8-30.3
			c-10.4-9.5-22.7-16-36.7-19.3c-14.4-4.5-28.7-5.1-43.1-1.9c-14.4,0.7-27.8,4.9-40.2,12.8C-90.7-67.6-98-62-105.3-56.4
			C-118.7-42.9-127.9-27-133-8.7c-1.3,9.6-2.6,19.1-3.9,28.7C-136.8,39.5-131.9,57.7-122.2,74.5L-122.2,74.5z"/>
	</g>
</g>
<g>
	<g>
		<path class="st1" d="M-6.3,2.6C4,75.1,48.9,137.5,107.5,179.6c30.8,22.1,65.1,37.8,100.4,51.3c35.7,13.7,72.2,25.5,106.4,42.6
			c34.4,17.3,67.1,40.1,89,72.3c4.3,6.4,14.7,0.4,10.4-6.1c-40.9-60.1-111.1-86.6-176.5-110.7c-36.3-13.3-72.4-27.1-105.4-47.7
			c-30.2-18.8-57.7-42.7-79.3-71.1C27.8,77.9,11,39.8,5.2-0.6C4.1-8.2-7.4-5-6.3,2.6L-6.3,2.6z"/>
	</g>
</g>
<g>
	<g>
		<path class="st1" d="M370.7,191.5c-17.6,28.6-14.5,62.1-6.5,93.1c3.3,13,13.3,25.5,24.8,32.3c11.6,6.8,28.6,9.6,41.6,5.4
			c13.1-4.2,25.7-12.3,32.3-24.8c1.8-4.3,3.6-8.6,5.4-12.9c2.6-9.6,2.6-19.1,0-28.7c-1.7-11.5-9.6-23.9-17.6-32
			c-9.8-9.8-19.3-13.5-31.9-18.5c4.3,1.8,8.6,3.6,12.9,5.4c-2-0.8-3.7-1.7-5.4-3c3.6,2.8,7.3,5.6,10.9,8.4c-2.6-2.4-4.7-5.3-7.3-7.7
			c-6.1-5.7-13.1-11-20.4-15c-8.2-4.4-16.8-8.2-25.2-12.1c-17.2-8-34.6-15.7-52.1-23.3C297,143,261.5,128.4,226.3,113
			c-19.1-8.4-38.7-16.3-55.4-29.2c3.6,2.8,7.3,5.6,10.9,8.4c-14.7-11.6-26.9-25.9-38.4-40.6c2.8,3.6,5.6,7.3,8.4,10.9
			c-3.5-4.5-6.9-9-10.3-13.6c-3.4-6.3-8-11.3-13.9-15.2c-5.2-4.8-11.3-8-18.4-9.7c-12.9-3.6-30.1-2-41.6,5.4
			c-11.5,7.4-21.7,18.5-24.8,32.3c-0.6,4.8-1.3,9.6-1.9,14.4c0,9.7,2.5,18.8,7.4,27.3c0.6,1.4,1.2,2.8,1.8,4.2
			c28.3-21.8,56.5-43.6,84.8-65.4c-5.6-4.7-10.7-10-15.3-15.8c2.8,3.6,5.6,7.3,8.4,10.9c-5.8-7.5-10.5-15.6-14.3-24.3
			c1.8,4.3,3.6,8.6,5.4,12.9c-3.6-8.8-6.1-17.8-7.5-27.2c0.6,4.8,1.3,9.6,1.9,14.4C113,6.9,112.7,0.7,113-5.6
			C90.2,11.7,67.4,29.1,44.6,46.4c75.3,17.1,151.3,37.9,229.2,29.5c14-1.5,28-3.4,41.9-6c9.2-1.7,18.3-3.7,27.5-5
			c-4.8,0.6-9.6,1.3-14.4,1.9c8.7-1.2,17.4-1.7,26.1-0.6c-4.8-0.6-9.6-1.3-14.4-1.9c4.2,0.7,8.2,1.7,12.2,3.2
			c-4.3-1.8-8.6-3.6-12.9-5.4c3.4,1.4,6.5,3.1,9.5,5.3c-3.6-2.8-7.3-5.6-10.9-8.4c1.9,1.5,3.7,3.1,5.3,5c-2.8-3.6-5.6-7.3-8.4-10.9
			c1.2,1.6,2.2,3.1,3,4.9c-1.8-4.3-3.6-8.6-5.4-12.9c0.8,2.1,1.3,4.1,1.7,6.3c-0.6-4.8-1.3-9.6-1.9-14.4c0.2,2.9,0.1,5.6-0.2,8.5
			c0.6-4.8,1.3-9.6,1.9-14.4c-1.6,11.6-4.7,23.4-3.9,35.1c0.9,12.3,4.6,23,6.6,34.9c-0.6-4.8-1.3-9.6-1.9-14.4
			c0.8,6.1,0.8,12.1,0.1,18.2c0.6-4.8,1.3-9.6,1.9-14.4c-1.9,14-6.8,27.5-12.1,40.5c1.8-4.3,3.6-8.6,5.4-12.9
			c-0.9,2-1.9,3.9-3.1,5.7c2.8-3.6,5.6-7.3,8.4-10.9c-0.8,1-1.6,1.8-2.5,2.7c3.6-2.8,7.3-5.6,10.9-8.4c-0.6,0.5-1.3,0.9-2,1.1
			c4.3-1.8,8.6-3.6,12.9-5.4c-0.4,0.1-0.8,0.2-1.1,0.3c4.8-0.6,9.6-1.3,14.4-1.9c-0.9,0.2-1.8,0.2-2.7,0.1c4.8,0.6,9.6,1.3,14.4,1.9
			c-1-0.2-1.9-0.4-2.8-0.8c4.3,1.8,8.6,3.6,12.9,5.4c-10.6-4.5-20.2-10.9-29.3-17.9c3.6,2.8,7.3,5.6,10.9,8.4
			c-19.8-15.3-38.1-33.3-60.3-45.1c-28.4-15.2-58.7-20.2-90.5-22.6c-5.7-0.4-11.5-1-17.3-1c-20.9,0-41.7,11-52.4,29.2
			c-7.2,12.2-10.1,29.8-5.7,43.4c3.9,12.2,10.4,21.9,20.5,29.7c13.6,10.5,28.3,12.6,45,12.9c25.4,0.5,50.8-0.3,76.2-2.3
			c33.4-2.7,66.7-7.2,99.6-13.5c12.7-2.4,26-14,32.3-24.8c6.8-11.6,9.6-28.6,5.4-41.6c-4.2-13.1-12.3-25.7-24.8-32.3
			c-4.3-1.8-8.6-3.6-12.9-5.4c-9.6-2.6-19.1-2.6-28.7,0c-14.1,2.7-28.2,5-42.4,7c4.8-0.6,9.6-1.3,14.4-1.9
			c-21.3,2.9-42.7,4.9-64.2,6c-21.1,1.1-42.6,2-63.7,0.7c4.8,0.6,9.6,1.3,14.4,1.9c-0.8-0.1-1.6-0.2-2.3-0.5
			c4.3,1.8,8.6,3.6,12.9,5.4c-0.3-0.2-0.6-0.3-1-0.5c3.6,2.8,7.3,5.6,10.9,8.4c-0.2-0.2-0.5-0.5-0.7-0.7c2.8,3.6,5.6,7.3,8.4,10.9
			c-0.1-0.3-0.3-0.6-0.4-1c2.5,9.1,4.9,18.2,7.4,27.3c0-0.3,0-0.7-0.1-1c-0.6,4.8-1.3,9.6-1.9,14.4c0.1-0.3,0.2-0.6,0.3-0.9
			c-4.6,7.9-9.3,15.9-13.9,23.8c0.2-0.2,0.4-0.5,0.6-0.7c-3.6,2.8-7.3,5.6-10.9,8.4c0.5-0.5,1.1-0.8,1.8-1.1
			c-4.3,1.8-8.6,3.6-12.9,5.4c0.7-0.3,1.5-0.5,2.3-0.6c-4.8,0.6-9.6,1.3-14.4,1.9c5.7-0.5,11.8,0.4,17.5,0.9
			c6.3,0.5,12.6,1.1,18.8,1.9c-4.8-0.6-9.6-1.3-14.4-1.9c12.4,1.7,24.6,4.4,36.2,9.1c-4.3-1.8-8.6-3.6-12.9-5.4
			c11.4,4.8,21.6,11.6,31.3,19.1c-3.6-2.8-7.3-5.6-10.9-8.4c38.4,30,92.5,84.7,141.5,39.1c11.4-10.6,16.6-24.4,22-38.6
			c3.1-8.2,6-16.5,8-25c2.8-12.2,5-25.5,3.9-38c-0.7-8.4-1.7-16.9-3.9-25c-1.2-4.5-2.6-8.9-3.2-13.5c0.6,4.8,1.3,9.6,1.9,14.4
			c-0.3-3.5-0.1-6.9,0.4-10.4c-0.6,4.8-1.3,9.6-1.9,14.4c1.6-10.4,4.2-21,3.9-31.6c-0.4-13.8-4.1-28.8-12.2-40.1
			c-8.1-11.3-17.4-21-29.9-27.6c-8.9-4.7-18.6-8.9-28.6-10.5c-10.1-1.7-20.2-3.1-30.5-2.6c-10.4,0.6-20.7,2.2-30.9,3.9
			c-13.3,2.2-26.3,5.2-39.7,7c4.8-0.6,9.6-1.3,14.4-1.9c-33,4.4-66.5,4.3-99.5-0.1c4.8,0.6,9.6,1.3,14.4,1.9
			c-42.1-5.9-83.5-16.9-124.9-26.3c-17.2-3.9-33.1-1.1-47.1,9.7C12.5-37.4,5.7-23,5-5.6C4.4,7,6.2,19.8,8.5,32.2
			c2.3,12.7,7.3,24.4,12.5,36.2c3.4,7.7,7.5,15,12.5,21.7c7.7,10.3,15.3,20.3,25.1,28.6c10.7,9,23.5,16.5,38.2,15.8
			c12.2-0.5,23-4.1,32.7-11.6c8.9-6.9,16.8-16.7,19.4-28.1c0.6-4.8,1.3-9.6,1.9-14.4c0-9.7-2.5-18.8-7.4-27.3
			c-0.6-1.4-1.2-2.8-1.8-4.2c-31.1,18.2-62.2,36.3-93.3,54.5c14.9,19.9,29.7,40.6,48.1,57.5c10.5,9.6,22,18.7,34.4,25.8
			c10,5.8,20.7,10.4,31.2,15.1c43.1,19.1,86.7,36.8,129.8,55.7c12.1,5.3,24.2,10.7,36.2,16.3c11.3,5.3,23.8,9.9,33.9,17.4
			c-3.6-2.8-7.3-5.6-10.9-8.4c3.5,2.8,6,6.3,9.2,9.3c10.2,9.6,19.9,13.2,32.7,18.6c-4.3-1.8-8.6-3.6-12.9-5.4c1.5,0.7,2.7,1.4,4,2.4
			c-3.6-2.8-7.3-5.6-10.9-8.4c0.8,0.7,1.5,1.4,2.1,2.2c-2.8-3.6-5.6-7.3-8.4-10.9c0.6,0.8,1.1,1.7,1.6,2.6
			c-1.8-4.3-3.6-8.6-5.4-12.9c0.6,1.5,0.9,2.8,1.2,4.4c34.7-9.6,69.4-19.1,104.1-28.7c-1.6-6.4-3.1-12.8-4.1-19.3
			c0.6,4.8,1.3,9.6,1.9,14.4c-0.7-5.9-1-11.7-0.2-17.6c-0.6,4.8-1.3,9.6-1.9,14.4c0.5-3.1,1.3-6.1,2.4-9c-1.8,4.3-3.6,8.6-5.4,12.9
			c0.9-2,1.8-3.8,2.9-5.6c7.2-11.8,9.1-28.4,5.4-41.6c-3.4-12.5-13.1-26.1-24.8-32.3c-12.5-6.6-27.7-9.9-41.6-5.4
			C389.4,171.1,378.2,179.2,370.7,191.5L370.7,191.5z"/>
	</g>
</g>
</svg>
