<?xml version="1.0" encoding="utf-8"?>
<!-- Generator: Adobe Illustrator 24.0.0, SVG Export Plug-In . SVG Version: 6.00 Build 0)  -->
<svg version="1.1" id="OBJECTS" xmlns="http://www.w3.org/2000/svg" xmlns:xlink="http://www.w3.org/1999/xlink" x="0px" y="0px"
	 viewBox="0 0 500 500" style="enable-background:new 0 0 500 500;" xml:space="preserve">
<style type="text/css">
	.st0{fill:#FFEBDE;}
	.st1{fill:#F2E2D6;}
	.st2{fill:#6A794A;}
	.st3{fill:#4F5935;}
	.st4{fill:#824319;}
	.st5{fill:#A05827;}
	.st6{fill:#DD7731;}
	.st7{fill:#F49351;}
	.st8{fill:#7B7941;}
	.st9{fill:#8E8B4A;}
	.st10{fill:#5B592D;}
	.st11{fill:#EBB39F;}
	.st12{fill:#3F84AA;}
	.st13{fill:#D0D7DD;}
	.st14{fill:#362218;}
	.st15{fill:#FFCCB3;}
	.st16{fill:#F9BCA5;}
	.st17{fill:#492D20;}
	.st18{fill:#754735;}
	.st19{fill:#89AECE;}
	.st20{fill:#B1D1E5;}
	.st21{fill:#7BA1C5;}
	.st22{fill:#5891B7;}
	.st23{fill:#DD620E;}
	.st24{fill:#F98F53;}
	.st25{fill:#AA5013;}
	.st26{fill:#ED7524;}
	.st27{fill:#ED905D;}
	.st28{fill:#FFA476;}
	.st29{fill:#FFD7C7;}
	.st30{fill:#A97347;}
	.st31{fill:#96BBD6;}
	.st32{fill:#633D2F;}
	.st33{fill:#DE9E8B;}
	.st34{fill:none;stroke:#633D2F;stroke-width:0.6387;stroke-miterlimit:10;}
</style>
<g>
	<g>
		<path class="st0" d="M453.1,400.3c6.1-7.7,79.4-145.9,29.8-284.7s-110.6-133.6-168.2-83c-57.6,50.5-73.7,63-153.8,47
			C80.7,63.7,3.9,120,27.9,204.6c24,84.6,36.7,101.4,8.2,157.1c-28.5,55.7,23,102.3,101,117.9C215,495.1,366.8,508.5,453.1,400.3z"
			/>
		<g>
			<path class="st1" d="M108.2,407.2c0,0-8.4,7.2,0,9.5c8.4,2.3,42.7,1.4,57.6-2.4c14.9-3.8,20-10.8,20-10.8
				c41.9,7.9,207.4,18,246.4-29.9c-142.5-3.2-277.9,0-277.9,0L108.2,407.2z"/>
			<path class="st1" d="M52.5,423.7c0,0-14,6.4,0,15.2c14,8.8,49.3,10.5,105.9-22.9c-7.4-10.1-20.1-7.4-20.1-7.4s-46.4,18.5-65,17.7
				C58.6,424.9,52.5,423.7,52.5,423.7z"/>
		</g>
	</g>
	<g>
		<path class="st1" d="M163.2,394.4c0,3.5-22,6.4-49.2,6.4s-49.2-2.9-49.2-6.4c0-3.5,22-6.4,49.2-6.4S163.2,390.8,163.2,394.4z"/>
		<g>
			<g>
				<g>
					<path class="st2" d="M106.4,230.2c0,0,4.4-40.8-17-55c-21.4-14.2-25.8-11.1-25.9-3.7C63.5,179,69.2,206,106.4,230.2z"/>
					<g>
						<path class="st3" d="M113.1,270.9c-0.2,0-0.4-0.2-0.5-0.5c-5.2-65.4-38.7-97.3-39-97.6c-0.2-0.2-0.2-0.5,0-0.7
							c0.2-0.2,0.5-0.2,0.6-0.1c0.3,0.3,34,32.4,39.3,98.3C113.6,270.7,113.4,270.9,113.1,270.9
							C113.2,270.9,113.2,270.9,113.1,270.9z"/>
					</g>
				</g>
				<g>
					<path class="st2" d="M113.2,197.5c0,0-7.2-33.1,3.5-48.7c10.7-15.5,23.4-15.3,27.4-12.7c4.1,2.6,3.8,20.6-6.8,31.1
						C126.7,177.8,113.3,193.1,113.2,197.5z"/>
					<g>
						<path class="st3" d="M119.3,267.4c-0.2,0-0.4-0.1-0.4-0.3c-0.1-0.3-8.7-27-6.1-69.6c2.6-42.8,25.7-56.3,26-56.4
							c0.2-0.1,0.5,0,0.6,0.2c0.1,0.2,0,0.5-0.2,0.7c-0.2,0.1-22.9,13.4-25.5,55.6c-2.6,42.4,6,68.9,6.1,69.2c0.1,0.3,0,0.5-0.3,0.6
							C119.4,267.4,119.4,267.4,119.3,267.4z"/>
					</g>
				</g>
				<g>
					<path class="st2" d="M120.2,238.1c0,0-5.2-40.4,9.2-57.6c14.4-17.2,29.4-15.4,34-11.8c4.6,3.5,2.5,25-11.3,36.3
						C138.3,216.2,120.8,232.8,120.2,238.1z"/>
					<g>
						<path class="st3" d="M125.8,268.4c-0.2,0-0.4-0.1-0.4-0.3c-0.1-0.1-5.6-15.2-5.6-30c0-38.6,36.7-65.7,37.1-66
							c0.2-0.2,0.5-0.1,0.6,0.1c0.1,0.2,0.1,0.5-0.1,0.7c-0.4,0.3-36.6,27.1-36.6,65.2c0,14.7,5.5,29.5,5.6,29.6
							c0.1,0.3,0,0.5-0.3,0.6C125.9,268.4,125.9,268.4,125.8,268.4z"/>
					</g>
				</g>
			</g>
			<g>
				<g>
					<g>
						<g>
							<polygon class="st4" points="82,394.4 89.9,342.9 81.6,342.9 73.7,394.4 							"/>
							<polygon class="st4" points="156.7,394.4 148.8,342.9 140.6,342.9 148.5,394.4 							"/>
						</g>
						<rect x="80.3" y="373.2" class="st4" width="69.8" height="10.1"/>
					</g>
					<rect x="73.4" y="325.5" class="st5" width="83.7" height="22.6"/>
				</g>
				<g>
					<path class="st6" d="M139.1,325.5c5.8-8.2,9.4-19.4,9.4-31.8c0-14.9-5.2-28.2-13.2-36.4H96.4c-8,8.3-13.2,21.5-13.2,36.4
						c0,12.4,3.6,23.6,9.4,31.8H139.1z"/>
					<path class="st7" d="M120,325.5h19.1c5.8-8.2,9.4-19.4,9.4-31.8c0-14.9-5.2-28.2-13.2-36.4H96.4c-3.1,3.2-5.7,7-7.8,11.5
						c4.9-3.4,13.8-6.5,29.4-3.8C144,269.6,139.5,311.2,120,325.5z"/>
				</g>
			</g>
		</g>
	</g>
	<g>
		<g>
			<g>
				<g>
					<path class="st8" d="M123.3,346.8c-1.2-4.2-13.5-91.5,39.6-91.5s82.8,14.2,94.7-44.8c18-89.7,43.1-91,99.4-82
						s103.7,142.8,93.5,207.2c-10.3,64.4-136.2,61-221,61.7C144.7,398.1,128.9,365.9,123.3,346.8z"/>
				</g>
				<path class="st9" d="M401.5,127.4c-12.7-2-68-0.2-77.3,2.6c11.3-1,24.5,0.4,35.1,9.2c23.8,19.7,26.2,94.9,22.7,131.2
					c-3.5,36.3-9.4,52-41.6,61c-32.2,9.1-55.7,1-89.3,2.5c-33.6,1.5-57.4-15.1-81.2-12.1c-23.8,3-46.7-8.6-45.4-31.5
					c-6.2,24.8,0.5,89.6,1.2,92c5.5,19.1,18.9,15,103.6,15.1c93.7,0.2,209.7,9.2,222.4-54.7C465.2,275.1,457.8,136.4,401.5,127.4z"
					/>
				<g>
					<g>
						<path class="st10" d="M419.1,138.7c-2-0.7-4.2-0.5-6.1,0.3c-1.9,0.8-3.5,2.4-4.8,4.1c-1.3,1.8-2.2,3.8-3,5.9
							c-0.8,2.1-1.3,4.2-1.8,6.4c-1.8,8.8-1.9,17.8-1.8,26.7c0.1,17.9-0.3,35.9-1.2,53.8c-0.5,9-1.1,17.9-1.9,26.8
							c-0.8,8.9-1.8,17.8-3.1,26.7c-1.4,8.9-3,17.7-5.5,26.3l-0.5,1.6l-0.2,0.8l-0.3,0.8c-0.4,1.1-0.9,2.1-1.4,3.1
							c-1.1,2-2.5,3.7-4.1,5.2c-3.2,3-7,5.1-10.9,6.6c-3.9,1.5-8,2.6-12.1,3.4c-4.1,0.8-8.2,1.3-12.4,1.7
							c-8.3,0.7-16.6,0.9-24.9,0.8c-16.6-0.2-33.2-1.2-49.8-1.6c-8.3-0.3-16.6,0.3-24.9-0.2c-8.3-0.4-16.6-1.4-24.8-2.9
							c-8.2-1.5-16.3-3.4-24.4-5.7c-8-2.3-16-4.9-23.8-8c7.8,3,15.8,5.5,23.8,7.8c8,2.2,16.2,4,24.4,5.5c8.2,1.5,16.4,2.4,24.7,2.8
							c8.3,0.5,16.6-0.1,24.9,0.2c16.6,0.3,33.2,1.3,49.8,1.4c8.3,0,16.6-0.1,24.9-0.9c8.2-0.8,16.5-2,24.3-5
							c3.9-1.5,7.6-3.5,10.7-6.4c1.5-1.4,2.9-3.1,3.9-5c0.5-0.9,1-1.9,1.3-3l0.3-0.8l0.2-0.8l0.5-1.6c2.5-8.5,4.1-17.3,5.5-26.2
							c1.4-8.8,2.4-17.7,3.2-26.7c0.8-8.9,1.4-17.9,1.9-26.8c0.9-17.9,1.4-35.8,1.3-53.8c-0.1-9,0.1-18,2-26.8
							c0.5-2.2,1-4.4,1.8-6.4c0.8-2.1,1.7-4.1,3-5.9c1.3-1.8,2.9-3.3,4.9-4.1C415,138.1,417.2,138,419.1,138.7z"/>
					</g>
					<g>
						<path class="st10" d="M147.5,350.2c10.9,2.7,22,5.1,33,7.1c11.1,2.1,22.2,3.8,33.4,4.8c5.6,0.6,11.2,0.8,16.8,0.9
							c5.6,0,11.2-0.2,16.8-0.5c5.6-0.3,11.2-1,16.8-1.4c5.6-0.4,11.3-0.5,16.9-0.2c5.6,0.4,11.2,1,16.8,1.8
							c2.8,0.4,5.6,0.8,8.3,1.1c2.8,0.2,5.6,0.4,8.4,0.5c11.2,0.4,22.4-0.4,33.5-2.6c5.5-1.1,10.9-2.6,16.2-4.6
							c5.3-2,10.4-4.4,15.2-7.5c4.8-3.1,9.2-7,12.8-11.6c3.6-4.7,6.2-10.2,7.6-16c-1.4,5.9-3.9,11.4-7.5,16.2
							c-3.6,4.7-8,8.6-12.7,11.8c-4.8,3.2-10,5.6-15.3,7.7c-5.3,2-10.8,3.5-16.3,4.7c-11.1,2.3-22.3,3.1-33.6,2.8
							c-2.8-0.1-5.6-0.3-8.4-0.5c-2.8-0.3-5.6-0.6-8.4-1c-5.6-0.8-11.1-1.4-16.7-1.7c-5.6-0.4-11.2-0.3-16.8,0.1
							c-5.6,0.4-11.2,1-16.8,1.3c-5.6,0.3-11.2,0.5-16.8,0.5c-5.6-0.1-11.2-0.3-16.8-0.9c-11.2-1.1-22.3-2.8-33.4-4.9
							C169.4,355.6,158.4,353.1,147.5,350.2z"/>
					</g>
				</g>
			</g>
			<g>
				<g>
					<g>
						<g>
							<path class="st11" d="M157.1,304.7c-0.5,2.8-4.1,25.7,1.1,29.4c5.2,3.7,8.3,9.3,9.6,12c1.4,2.7-33.3,17.2-33.3,17.2
								s3-21.4,1.4-50.5C149.8,308.1,157.1,304.7,157.1,304.7z"/>
							<path class="st12" d="M160.3,340c0,0-2.3,10.4-12,18.9c-3.8-4.3-12.4-4.8-13.6-1.3c-1,7.5-17.6,35.1-27,44.4
								c-8,11.4-0.8,13.5,8,11.8c8.8-1.7,60.1-47.5,61.9-53.3C179.3,354.4,165.3,340,160.3,340z"/>
							<path class="st13" d="M173.3,352.5c-1.8,5.8-53.5,55.4-62.2,57.1c-2.5,0.5-4.9,0.7-6.8,0.4c0,4.4,5.3,5,11.4,3.8
								c8.8-1.7,60.1-47.5,61.9-53.3c0.7-2.5-1.2-6.5-4.2-10.3C173.5,351,173.5,351.8,173.3,352.5z"/>
						</g>
						<g>
							<g>
								<path class="st14" d="M255.2,242.3c0,0-86.6-41.5-113.6-33.9c-17.6,6.8-11,134.4-11,134.4l25-2.5c0,0,12.9-79.9,13.3-83.7
									c26.6,16.5,59.5,30,79,33.8s78.6-33.4,78.6-33.4S291.3,235.6,255.2,242.3z"/>
								<path class="st15" d="M97.6,396c-2.6-0.3-12.7,9.9-15.6,15.8c-2.9,5.9-7.9,9.7-10.2,11.4c-2.3,1.7-18.7-34.3-18.7-34.3
									s17.6,6.8,32.9-11.4C91.4,391.9,97.6,396,97.6,396z"/>
								<path class="st16" d="M85.9,377.4c-3.4,4.1-7,6.9-10.5,8.8c7.2,2.6,9.7,10.7,11.1,19c4.1-4.9,9.3-9.5,11.1-9.3
									C97.6,396,91.4,391.9,85.9,377.4z"/>
								<path class="st17" d="M352.8,276.2c0,0-11.4,32.3-39.5,36.8c-28.2,4.5-102.2-12.4-104.8-13.5c-2.6-1.1-23.7,53.6-109,104
									C86.9,386.3,83,377.4,83,377.4s77.5-101.9,98.6-119.6c21.1-17.7,123.6-8.4,123.6-8.4L352.8,276.2z"/>
								<path class="st18" d="M93.2,394.7c9.8-8,19.4-16.3,28.9-24.7c9.5-8.4,18.9-16.9,28.1-25.7c9.2-8.8,18.2-17.8,26.7-27.4
									c4.2-4.8,8.3-9.7,12.1-14.9c0.9-1.3,1.9-2.6,2.8-4c0.9-1.3,1.8-2.7,2.6-4.1l1.2-2.1l1.1-2.2c0.8-1.4,1.3-3,1.9-4.5l0.1-0.3
									l0.3,0l1,0.2c0.3,0,0.7,0,1,0c0.6,0,1.3-0.2,1.9-0.4c0.6-0.3,1.1-0.7,1.5-1.2c0.4-0.5,0.7-1.2,0.8-1.8l0.2-0.7l0.5,0.5
									c0.9,1.1,1.9,2.1,3,2.9c0.3,0.2,0.6,0.4,0.8,0.5c0.2,0.1,0.3,0.1,0.4,0.2l0.5,0.1l2,0.4c2.7,0.5,5.4,1,8.1,1.4
									c5.4,0.8,10.9,1.5,16.3,2c10.9,1.1,21.9,1.6,32.8,1.3c10.9-0.4,21.9-1.5,32.5-4.5c5.3-1.5,10.5-3.5,15.3-6.4
									c4.8-2.9,9.1-6.7,12.3-11.5c-3.1,4.9-7.4,8.8-12.2,11.7c-4.8,2.9-10,5-15.3,6.6c-5.3,1.6-10.7,2.6-16.2,3.3
									c-5.4,0.7-10.9,1.1-16.4,1.3c-11,0.4-21.9-0.1-32.9-1.1c-5.5-0.5-10.9-1.2-16.3-2c-2.7-0.4-5.4-0.8-8.1-1.3l-2-0.4l-0.5-0.1
									c-0.2,0-0.4-0.1-0.5-0.2c-0.3-0.2-0.7-0.4-1-0.6c-1.2-0.9-2.2-1.9-3.2-3l0.6-0.2c-0.2,0.8-0.5,1.5-1,2.2
									c-0.5,0.6-1.1,1.1-1.8,1.4c-0.7,0.3-1.4,0.5-2.1,0.5c-0.4,0-0.7,0-1.1,0l-1.1-0.2l0.4-0.3l-0.9,2.3
									c-0.2,0.4-0.3,0.8-0.5,1.1l-0.6,1.1l-1.1,2.2l-1.2,2.1c-0.8,1.4-1.7,2.8-2.6,4.1c-0.9,1.4-1.9,2.7-2.8,4
									c-3.8,5.2-8,10.1-12.2,14.9c-8.5,9.5-17.6,18.5-26.8,27.3c-9.2,8.8-18.6,17.3-28.2,25.6C112.8,378.6,103.1,386.8,93.2,394.7
									z"/>
								<path class="st18" d="M89.7,368.6c0.1,1.5,0.5,3,0.9,4.4c0.4,1.4,1,2.8,1.5,4.2c1.2,2.7,2.7,5.3,4.4,7.7
									c1.6,2.5,3.5,4.7,5.5,6.9c1,1.1,2,2.1,3,3.1l3.2,3l-3.3-2.8c-1-1-2.1-2-3.1-3.1l-1.5-1.6l-0.7-0.8l-0.7-0.9l-1.4-1.7
									c-0.4-0.6-0.9-1.2-1.3-1.8c-1.7-2.5-3.2-5-4.3-7.8C90.7,374.6,89.8,371.7,89.7,368.6z"/>
								<path class="st18" d="M316.4,261.2c-0.7,0.8-1.4,1.7-2,2.6c-0.6,0.9-1.2,1.8-1.8,2.8c-1.1,1.9-2.1,3.9-3.1,6l-0.7,1.5
									l-0.6,1.6c-0.5,1-0.8,2.1-1.2,3.1c-0.4,1.1-0.8,2.1-1.2,3.2c-0.4,1.1-0.7,2.2-1.1,3.2c0.2-1.1,0.5-2.2,0.7-3.4
									c0.3-1.1,0.6-2.2,1-3.3c0.7-2.2,1.5-4.3,2.5-6.4c1-2.1,2-4.1,3.3-5.9C313.3,264.4,314.7,262.6,316.4,261.2z"/>
							</g>
							<path class="st15" d="M278.8,156.2c0,0-17.3,41.1-19.4,43.6c-4-5.3-13-31.7-14.5-34.2c-0.8-1.3-5.2,0.3-5.2,0.3l-8.7,5.9
								c0,0,1.2,60.1,23.2,66.8c15.5,4.7,42.4-69.9,42.1-70.7C295.8,167.1,278.8,156.2,278.8,156.2z"/>
							<path class="st19" d="M293.9,131.9c0,0-14.6,18-17.1,25.5c8.3,4.1,10.2,8.7,10.2,8.7S295.2,139.1,293.9,131.9z"/>
							<path class="st20" d="M285.9,171.2c0,0-6.3-7.1-12.7-7.3c1.8-8,6-13.1,6-13.1s6.1,1.1,11.3,7.1
								C294,162.6,285.9,171.2,285.9,171.2z"/>
							<path class="st21" d="M327.4,109.3c1.6-0.5,2.3-2.7,14.7-2.7c12.4,0,35.8,7.1,49,28c-1.1,73.8-29.7,136.6-42.6,150.8
								c-25-33.4-83.7-43.1-93.2-43.1c21.9-42.6,34-98.1,37.9-108.6C297,123.1,322.2,111,327.4,109.3z"/>
							<path class="st22" d="M367.2,251.2c-6.4-3.2-18.2-9.1-23.2-12.4c-7-4.6-30.7-3.3-31-17.2c-0.3-14,16.1-26.9,26.6-26.9
								c10.5,0,18.5-6.6,19.8-24.8c-3.7-2.8-39.7,0.8-39.7,0.8l-40.8,11.6c-6,19.1-13.9,40.8-23.7,59.9c3.4,0,13.4,1.3,25.8,4.5
								l10.9-1.6c0,0,9.2,2.9,13.2,4.2c25,9,38,26.8,43.3,36C354.7,279.7,361.3,265.6,367.2,251.2z"/>
							<path class="st19" d="M326.7,108.3c0,0-5.8,4.1-4.8,10.2c1,6.1,11.3,12.5,21.9,6.3c10.6-6.2,8.2-16,6.3-17.5
								c-2-1.5-5.9-3-9.7-2.7C336.7,104.8,326.7,108.3,326.7,108.3z"/>
						</g>
						<path class="st22" d="M80.6,414.2c0,0-9.8-1.6-18.4-11.3c3.7-4.5,3.4-13.8,0-14.8c-7-0.4-33.9-15.9-43.3-25.2
							c-11.2-7.6-12.5,0.3-10.2,9.6c2.3,9.3,49,60.6,54.5,62C69,435.9,81.1,419.6,80.6,414.2z"/>
						<path class="st13" d="M69.5,429.5c-5.5-1.4-55.7-52.8-58-62.1c-0.7-2.7-1-5.2-1-7.3c-4,0.3-4.2,6.1-2.6,12.6
							c2.3,9.3,49,60.6,54.5,62c2.4,0.6,6-1.6,9.3-5C71,429.9,70.2,429.7,69.5,429.5z"/>
					</g>
					<g>
						<g>
							<g>
								<g>
									<path class="st23" d="M281.8,235.7c-1.3-4.5-2.6-14.8,1-26.8l-29.1,5.7l2.1,12.6c2.8-1.2,4.6-2.1,4.6-2.1
										s11.6,11.6,12.8,17.6c1.3,6,1.9,6.7,7.5,6.7c6.2,0.1,8.9,1.3,9.5-2.2C291,243.2,283.2,240.5,281.8,235.7z"/>
									<path class="st23" d="M228.3,241.7c-1.1-0.9-1.2-6.2-0.4-7.5c0.7-1.1,9.2-6.3,12.8-9v-17.6h-22.5c0.4,1.6,0.9,2.9,1.3,3.9
										c3.5,7.6-3.4,15.1-5,18.8c-1.6,3.7,4.9,16.9,6.6,19.1c1.7,2.2,10.6,2,11.9,1.1C234.5,249.5,229.4,242.6,228.3,241.7z"/>
									<path class="st24" d="M212.4,174.5c0,0-11.3-5.9-13.7-16.6c-1.8,2.9,0.2,9.4,0.2,9.4s-8.2-12.7-0.9-28.8
										c-6,1.7-8,7.7-8,7.7s2.8-16,15.5-14.8c-3.5-10.6-18.2-10.9-23.6-6.2c3.5-5.9,6.6-7.5,6.6-7.5s-14.9,1.9-16.8,22.6
										c-1.6-1.8-2.6-8.6-2.6-8.6s-6.8,19.1,6.5,35c-4.8,0.1-6.2-0.3-6.2-0.3s8,13.2,21.8,16.1c-10.4,2.3-11.7,2.4-11.7,2.4
										s9.2,7.3,22.9,5.1C216.1,187.6,212.4,174.5,212.4,174.5z"/>
									<g>
										<g>
											<path class="st25" d="M190,146.3c-0.6,2.2-0.9,4.4-1,6.7c-0.1,2.3,0,4.5,0.5,6.7c0.4,2.2,1,4.4,1.9,6.4
												c0.8,2.1,2,4,3.1,5.9c-0.3-0.4-0.7-0.9-1-1.3c-0.3-0.5-0.7-0.9-1-1.4c-0.6-1-1.2-1.9-1.7-3c-1-2-1.7-4.3-2.1-6.5
												c-0.4-2.3-0.5-4.6-0.3-6.9c0.1-1.2,0.3-2.3,0.5-3.4C189.2,148.4,189.5,147.3,190,146.3z"/>
										</g>
										<g>
											<path class="st25" d="M198.9,167.4c1,0.9,1.8,1.9,2.6,2.9c0.8,1,1.5,2.1,2.1,3.3c-0.5-0.4-1-0.8-1.5-1.3
												c-0.5-0.5-0.9-1-1.3-1.5C200.1,169.7,199.4,168.6,198.9,167.4z"/>
										</g>
										<g>
											<path class="st25" d="M175.6,166.6c1.2,1.1,2.6,2,4,2.9c1.4,0.8,2.8,1.6,4.2,2.4c1.4,0.8,2.9,1.4,4.4,2.1
												c1.5,0.7,2.9,1.4,4.4,2.1c-0.8-0.2-1.6-0.4-2.3-0.7c-0.8-0.3-1.5-0.5-2.3-0.8c-1.5-0.6-3-1.2-4.5-2
												c-1.5-0.7-2.9-1.6-4.2-2.6C178,169.1,176.7,168,175.6,166.6z"/>
										</g>
										<g>
											<path class="st25" d="M171.7,140.3c0.6,1.6,1.3,3.1,2,4.6c0.7,1.5,1.5,2.9,2.3,4.3c0.8,1.4,1.7,2.8,2.7,4.1
												c1,1.3,2,2.5,3.1,3.8c-1.3-1-2.5-2.1-3.6-3.3c-0.6-0.6-1-1.3-1.5-1.9c-0.5-0.7-0.9-1.4-1.4-2.1
												C173.7,146.7,172.3,143.6,171.7,140.3z"/>
										</g>
										<g>
											<path class="st25" d="M181.9,125.2c-0.8,1.4-1.2,3-1.5,4.6c-0.3,1.6-0.4,3.2-0.4,4.9l0,1.2l0.1,1.2
												c0,0.8,0.2,1.6,0.3,2.4c0.1,0.8,0.3,1.6,0.4,2.4c0.2,0.8,0.3,1.6,0.5,2.4c-0.3-0.8-0.6-1.5-0.9-2.3
												c-0.2-0.8-0.5-1.6-0.6-2.4c-0.3-1.6-0.6-3.3-0.5-5c0-1.7,0.2-3.4,0.6-5C180.2,128.1,180.9,126.5,181.9,125.2z"/>
										</g>
										<g>
											<path class="st25" d="M184.7,141.8c0.3-2.5,1-5,2.2-7.2c1.2-2.2,2.9-4.2,5.1-5.3c2.2-1.1,4.7-1.3,7-0.7
												c1.2,0.2,2.3,0.7,3.4,1.1l1.6,0.8c0.5,0.3,1,0.6,1.5,0.9c-2.1-1-4.3-1.9-6.6-2.2c-2.2-0.4-4.6-0.2-6.6,0.8
												c-2,1-3.7,2.8-4.9,4.9c-0.6,1-1.1,2.1-1.6,3.3C185.4,139.4,185,140.6,184.7,141.8z"/>
										</g>
									</g>
									<path class="st26" d="M295.8,159.5c0,0-12.1,14.9-25.9,11.2c-13.8-3.7-48.4-8.5-60.7,0.8c-12.4,9.2-8.5,37-5,44.6
										c3.5,7.6-3.4,15.1-5,18.8c-1.6,3.7,4.9,16.9,6.6,19.1c1.7,2.2,10.6,2,11.9,1.1c1.4-0.9-3.7-7.8-4.8-8.8
										c-1.1-0.9-1.2-6.2-0.4-7.5c0.9-1.3,12.3-8.2,14.1-10.1c11.1,4.3,47.3-4.8,47.3-4.8s9.5,13.6,9.7,19.8
										c0.3,6.1,0.7,6.9,6.3,8.1c6.1,1.3,8.5,3,9.7-0.4c1.4-3.8-5.8-8-6.4-13c-0.6-4.9,0-16.2,6.3-28c6.4-11.8,7.8-16.1,8.8-20.9
										C309.4,184.7,295.8,159.5,295.8,159.5z"/>
									<path class="st24" d="M226.4,229c1-1.1,7.2-9.2,7.9-20c0.6-10.8-2.8-17-5.3-17.4c-2.4-0.4-4.4,1.5-3.7,3.7
										c0,0,5.7,15-1,27.9c-6.7,12.9-11.1,10.5-14.1,15.8c-3,5.3-0.5,7.8,1.7,10.2c2.2,2.4,2,2.9-7.8,2.1c0.7,1.3,1.3,2.3,1.7,2.8
										c1.7,2.2,10.6,2,11.9,1.1c1.4-0.9-3.7-7.8-4.8-8.8c-1.1-0.9-1.2-6.2-0.4-7.5C213.4,237.5,223.8,231.1,226.4,229z"/>
									<g>
										<path class="st25" d="M258.1,201.2c3,4,6,8.1,8.9,12.2c2.9,4.1,5.8,8.2,8.5,12.5c1.4,2.1,2.8,4.2,4.1,6.3
											c1.3,2.2,2.6,4.4,3.4,6.9c0.4,1.2,0.5,2.6,0.6,3.9c0.1,1.3,0.2,2.6,0.4,3.8c0.2,1.2,0.8,2.4,1.7,3.2
											c0.9,0.8,2.1,1.1,3.3,1.3l0,0l0,0l3.5,0.8c1.2,0.3,2.3,0.6,3.5,0.8c0.6,0.1,1.2,0.2,1.7,0.1c0.3-0.1,0.6-0.2,0.7-0.5
											c0.2-0.3,0.2-0.6,0.1-0.9c-0.1-0.6-0.4-1.2-0.9-1.6c-0.4-0.4-0.9-0.9-1.5-1c0.6,0.1,1.1,0.5,1.5,1c0.4,0.4,0.8,1,0.9,1.7
											c0,0.3,0,0.7-0.1,1c-0.2,0.3-0.5,0.5-0.8,0.5c-0.6,0.2-1.2,0-1.8-0.1c-2.4-0.5-4.7-1.1-7-1.6l0,0
											c-1.2-0.2-2.4-0.5-3.4-1.4c-1-0.8-1.6-2.1-1.8-3.4c-0.3-1.3-0.4-2.6-0.5-3.9c-0.1-1.3-0.2-2.6-0.6-3.8
											c-0.7-2.4-2.1-4.6-3.4-6.8c-1.3-2.1-2.7-4.2-4.1-6.4c-2.7-4.3-5.5-8.4-8.4-12.6C263.9,209.4,261,205.3,258.1,201.2z"/>
									</g>
									<g>
										<path class="st25" d="M233.9,194.8c0.6,1.4,0.9,2.9,1.3,4.4c0.3,1.5,0.5,3,0.6,4.6c0.1,1.5,0,3.1-0.1,4.6l-0.3,2.3
											l-0.4,2.3c-0.1,0.8-0.4,1.5-0.6,2.2l-0.3,1.1c-0.1,0.4-0.3,0.7-0.4,1.1l-0.8,2.1l-1,2l-0.5,1c-0.2,0.3-0.4,0.6-0.6,1
											l-1.2,1.9c-0.9,1.2-1.8,2.3-2.7,3.5c0.9-1.2,1.8-2.4,2.6-3.6l1.2-1.9c0.2-0.3,0.4-0.6,0.6-1l0.5-1l1-2l0.8-2.1
											c0.1-0.4,0.3-0.7,0.4-1.1l0.3-1.1c0.2-0.7,0.5-1.4,0.6-2.2c0.7-2.9,0.9-6,0.9-9C235.3,200.7,234.8,197.6,233.9,194.8z"/>
									</g>
									<g>
										<path class="st25" d="M215,251.9c0.3,0.1,0.6,0.3,0.9,0.5c0.2,0.2,0.4,0.6,0.6,0.9c0.1,0.3,0.2,0.7,0.2,1
											c0,0.2,0,0.4,0,0.5c0,0.2,0,0.3-0.1,0.5l-0.2-1c-0.1-0.3-0.2-0.6-0.3-0.9C215.9,252.9,215.6,252.3,215,251.9z"/>
										<path class="st25" d="M211.9,252.1c0.3,0.1,0.6,0.3,0.9,0.5c0.2,0.2,0.4,0.6,0.6,0.9c0.1,0.3,0.2,0.7,0.2,1
											c0,0.2,0,0.4,0,0.5c0,0.2,0,0.3-0.1,0.5l-0.2-1c-0.1-0.3-0.2-0.6-0.3-0.9C212.7,253,212.4,252.5,211.9,252.1z"/>
										<path class="st25" d="M208.9,251.9c0.3,0.1,0.6,0.3,0.9,0.5c0.2,0.2,0.4,0.6,0.6,0.9c0.1,0.3,0.2,0.7,0.2,1
											c0,0.2,0,0.4,0,0.5c0,0.2,0,0.3-0.1,0.5l-0.2-1c-0.1-0.3-0.2-0.6-0.3-0.9C209.7,252.9,209.4,252.3,208.9,251.9z"/>
									</g>
									<g>
										<path class="st25" d="M230.9,247.1c0.3,0.1,0.6,0.3,0.9,0.5c0.2,0.2,0.4,0.6,0.6,0.9c0.1,0.3,0.2,0.7,0.2,1
											c0,0.2,0,0.4,0,0.5c0,0.2,0,0.3-0.1,0.5l-0.2-1c-0.1-0.3-0.2-0.6-0.3-0.9C231.8,248.1,231.4,247.6,230.9,247.1z"/>
										<path class="st25" d="M227.8,247.3c0.3,0.1,0.6,0.3,0.9,0.5c0.2,0.2,0.4,0.6,0.6,0.9c0.1,0.3,0.2,0.7,0.2,1
											c0,0.2,0,0.4,0,0.5c0,0.2,0,0.3-0.1,0.5l-0.2-1c-0.1-0.3-0.2-0.6-0.3-0.9C228.6,248.3,228.3,247.7,227.8,247.3z"/>
										<path class="st25" d="M224.7,247.1c0.3,0.1,0.6,0.3,0.9,0.5c0.2,0.2,0.4,0.6,0.6,0.9c0.1,0.3,0.2,0.7,0.2,1
											c0,0.2,0,0.4,0,0.5c0,0.2,0,0.3-0.1,0.5l-0.2-1c-0.1-0.3-0.2-0.6-0.3-0.9C225.6,248.1,225.2,247.6,224.7,247.1z"/>
									</g>
								</g>
								<path class="st26" d="M295.8,159.5c0,0,7.7-19,24.6-16.3c16.9,2.7,17.4,14.7,20,17.2c2.6,2.5,14.2,3.1,15.1,4.7
									c0.9,1.6-4.9,11.5-11.1,15c-4.2,1.2-28.6-2-36.6,11.9C294.7,189.3,295.8,159.5,295.8,159.5z"/>
								<path class="st25" d="M348.8,176.6c0,0-1.6,1.2-13.9-2.4C344.3,178.1,347.9,177.6,348.8,176.6z"/>
								<path class="st14" d="M352.4,163.9c0,0,2.3-0.5,3.5,0.4c1.2,0.9-0.3,3.6-1.3,4.4c0.3-1.9,0.2-2.8-1.4-3.3
									C351.5,164.8,351.6,164,352.4,163.9z"/>
								<path class="st27" d="M338.3,160.4c0,0-1.6-6.6-6.5-7.6c-4.8-1-9.6,2.3-9,7.6c0.6,5.3,5.8,5.5,8.7,3.8
									c2.9-1.7,5.7,0.4,6.4-0.6C338.6,162.5,338.6,161.3,338.3,160.4z"/>
								<ellipse class="st14" cx="333.8" cy="159.8" rx="1.1" ry="1.2"/>
							</g>
							<path class="st24" d="M321.2,146c0,0-6.4-1.1-7.9,14.9c-1.5,16,1,39.9-15.8,33.8C280.8,188.7,290.9,137.3,321.2,146z"/>
							<path class="st28" d="M310.4,165.1c-1.5,16,1.7,31.6-15.1,25.5c-1.8-0.6-3.2-1.7-4.3-3.2c1.3,3.5,3.5,6.2,6.6,7.3
								c16.8,6,14.3-17.8,15.8-33.8c0.5-5.5,1.6-8.9,2.8-11.1C313.7,152.6,311.1,157.4,310.4,165.1z"/>
							<path class="st25" d="M319.7,146.3c-1.2,0.4-2.1,1.3-2.8,2.3c-0.7,1-1.3,2.2-1.7,3.4c-0.8,2.4-1.2,5-1.5,7.6
								c-0.6,5.2-0.8,10.4-1.1,15.5c-0.1,2.6-0.3,5.2-0.7,7.8c-0.4,2.6-1,5.1-2,7.5c-0.6,1.2-1.2,2.3-2.1,3.3c-0.9,0.9-2,1.7-3.1,2
								c-1.2,0.3-2.4,0.4-3.6,0.3c-1.2-0.1-2.4-0.5-3.5-1c-1.1-0.5-2.2-1.1-3.2-1.9c-0.2-0.2-0.5-0.4-0.7-0.6
								c-0.2-0.2-0.5-0.4-0.6-0.7l-0.3-0.4c-0.1-0.1-0.2-0.3-0.2-0.4c-0.2-0.3-0.3-0.6-0.4-0.9c-0.5-1.2-1.1-2.3-1.5-3.6
								c-0.4-1.2-0.6-2.5-0.8-3.8c-0.2-1.3-0.2-2.6-0.3-3.9c0-1.3-0.1-2.6,0-3.9c0.2-2.6,0.7-5.2,1.5-7.7c1.5-5,3.8-9.7,6.9-13.6
								c1.6-1.9,3.4-3.7,5.5-5.1c2-1.4,4.3-2.3,6.7-2.8c-2.4,0.5-4.6,1.5-6.6,2.9c-2,1.4-3.8,3.2-5.4,5.1c-3.1,3.9-5.4,8.6-6.8,13.6
								c-0.7,2.5-1.2,5-1.4,7.6c-0.1,1.3,0,2.6,0,3.9c0.1,1.3,0.1,2.6,0.3,3.9c0.2,1.3,0.4,2.5,0.8,3.8c0.4,1.2,0.9,2.4,1.5,3.5
								c0.5,1.2,1.3,2.1,2.2,2.9c0.9,0.8,2,1.4,3.1,1.9c1.1,0.5,2.3,0.8,3.4,1c1.2,0.1,2.4,0.1,3.5-0.2c1.1-0.3,2.2-1,3-1.9
								c0.9-0.9,1.5-2,2-3.1c1-2.3,1.6-4.9,2-7.4c0.4-2.6,0.6-5.1,0.8-7.7c0.3-5.2,0.5-10.4,1.2-15.6c0.3-2.6,0.7-5.2,1.6-7.6
								c0.4-1.2,1-2.4,1.7-3.4C317.6,147.5,318.6,146.6,319.7,146.3z"/>
						</g>
						<g>
							<path class="st15" d="M403.5,177.6c-10.2-2.9-39.9,4.5-39.9,4.5s6.3,33.8,3.1,33.8c-3.1,0-65.2-13.9-65.2-13.9
								s-5.2-1.2-8.2-6.8c-3-5.6-7.4-21.2-9.9-24.4c-2.5-3.3-5.3,3.4-2.9,9.2c2.3,5.8,3,7.2,1.7,7.9c-1.3,0.7-17.5-7.4-23.4-13.5
								c-6.3-5.6-4.8,1-0.9,5c3.9,4,11.9,10.2,12.4,10.5c-6.2,0-16.9-9.6-19.8-11.8c-2.9-2.2-4.7-0.9-1.6,3.7
								c3.1,4.6,13.1,9.6,16.4,12.3c3.3,2.6-0.1,2.6-3.1,1.7c-3-0.9-9.8-5.6-11.7-6.4c-1.9-0.8-2.8,0.1-1.7,1.7
								c1.2,1.6,9.8,8.9,14.9,11c5,2.2,1,2.7-3,1.3c-2.2-0.8-5.4-3.4-6.9-3.9c-1.5-0.5-1.6,1.8,2.2,4.7c3.8,2.9,9.1,6.3,17,7.6
								c7.9,1.3,20.1,9.8,20.1,9.8c29.2,25.5,78.6,36,88.3,35.7c9.6-0.3,18.5,1.1,22.2-15.2C407.2,225.8,403.5,177.6,403.5,177.6z"
								/>
							<g>
								<path class="st29" d="M403.5,177.6c-2.8-0.8-7.1-0.8-11.8-0.4c0.7,0.1,1.4,0.2,2,0.4c0,0,3.7,48.2,0,64.5
									c-2.8,12.5-8.7,14.6-15.6,15c1.4,0.1,2.5,0.2,3.3,0.2c9.6-0.3,18.5,1.1,22.2-15.2C407.2,225.8,403.5,177.6,403.5,177.6z"/>
							</g>
							<path class="st16" d="M404.4,191.9c-0.4-8.4-0.9-14.3-0.9-14.3c-10.2-2.9-39.9,4.5-39.9,4.5s1.7,9.4,2.9,18.2
								C374.8,188.1,391.7,184.6,404.4,191.9z"/>
							<g>
								<path class="st30" d="M366.8,215.9c1.8,0.2,3.6,0.7,5.3,1.4c1.7,0.6,3.4,1.5,5,2.4c1.6,1,3.1,2.1,4.5,3.3
									c1.4,1.2,2.7,2.7,3.8,4.2c-0.7-0.7-1.3-1.4-2-2l-1-1c-0.3-0.3-0.7-0.6-1.1-0.9c-0.7-0.6-1.5-1.1-2.2-1.7
									c-0.8-0.5-1.5-1-2.3-1.5c-1.6-1-3.2-1.8-4.9-2.5C370.2,217.1,368.5,216.4,366.8,215.9z"/>
								<path class="st30" d="M290.1,215.8c0.1,0.7,0.2,1.3,0.5,1.9c0.3,0.6,0.6,1,1.1,1.3c0.5,0.3,1.1,0.4,1.7,0.4l0.9,0
									c0.3,0,0.6-0.1,0.9-0.1c-0.3,0.1-0.6,0.2-0.9,0.4c-0.3,0.1-0.6,0.1-1,0.2c-0.7,0-1.3,0-2-0.4c-0.6-0.4-1.1-1-1.3-1.7
									C289.9,217.2,289.9,216.4,290.1,215.8z"/>
							</g>
							<path class="st19" d="M390.6,132.1c0,0,12.3,20.6,16,49c-31.2-6.5-45.2,7.5-45.2,7.5s-5.5-32.4-5-46.2
								C357,128.6,382.6,115.9,390.6,132.1z"/>
							<path class="st31" d="M390.6,132.1c-3.1-6.2-8.7-8.2-14.6-7.4c15,11.8,17.4,33.4,18.5,54.9c3.7,0.2,7.7,0.7,12,1.6
								C403,152.6,390.6,132.1,390.6,132.1z"/>
							<path class="st20" d="M361.6,192c0,0,7.3-9.7,22.4-11c15.1-1.3,25,3.6,25,3.6s0.1-16.5-1.8-19.5c-17.3-3-45.6-5.9-50.9,10
								C358,182.7,361.6,192,361.6,192z"/>
						</g>
						<g>
							<path class="st15" d="M228.3,167.1c0,0-3.9-1.2-6.2,0.3c-3.6,2.2-4.7,6.1-6.4,5.1c-1.6-1.5,1.5-6.8,4.5-9
								C223.3,161.1,228.3,164.1,228.3,167.1z"/>
							<path class="st15" d="M234.6,165.9c0,0-4.7-1.5-6.7,2.7c-2.6,5.4-3.2,10.6-5.1,10.2c-1.9-1.1-0.1-9.7,2.4-14.4
								C227.7,159.8,233.9,162,234.6,165.9z"/>
							<path class="st15" d="M241.1,166.3c0,0-5.1-1.6-7.3,3.5c-2.9,6.7-3.6,13.1-5.7,12.5c-2.1-1.2,0-11.9,2.7-17.6
								C233.6,159.1,240.4,161.6,241.1,166.3z"/>
							<path class="st15" d="M245.1,166.3c0,0-5-0.6-6.2,4.5c-1.7,6.7-1.5,12.7-3.4,12.6c-2.1-0.8-1.7-11,0-16.7
								C237.1,160.9,243.8,162.1,245.1,166.3z"/>
						</g>
					</g>
				</g>
				<g>
					<g>
						<g>
							<g>
								<path class="st15" d="M317.3,92.9c0,0,8,7.1,11.4,20.2c1.1,4.3,6,6,9.2,3.2c5.2-4.6,6.1-9.8,6.1-9.8l-5.8-25.1L317.3,92.9z"
									/>
							</g>
							<g>
								<path class="st16" d="M341.7,96.7l-3.6-15.3l-20.8,11.5c0,0,6.5,5.8,10.3,16.6C333.7,107.8,338.9,103,341.7,96.7z"/>
							</g>
							<g>
								<g>
									<g>
										<g>
											<path class="st15" d="M291,55.5c0,0,2.8,11.2,1.1,23c-1.7,11.8-3,24.1,5.5,32c8.5,7.9,28.5-0.6,33.3-6.9
												c4.9-6.3,10.6-21.4,7.6-39.1c-3-17.7-12-24.8-25.2-21.3C300.2,46.7,290.7,53.9,291,55.5z"/>
										</g>
										<g>
											<path class="st16" d="M313.4,43.2c-13.2,3.5-22.7,10.7-22.4,12.3c0,0,0.4,1.7,0.8,4.4c8.7,1.7,17.9,1.4,26.6-2.4
												c8.6,5.1,12.6,13.6,14.5,23.2c1.7-5.9,3.7-11.7,5.4-17.6C335.1,46.4,326.3,39.8,313.4,43.2z"/>
											<path class="st11" d="M338.6,64.5c-0.1-0.5-0.2-0.9-0.3-1.4c-1.7,5.9-3.7,11.7-5.4,17.6c1.1,5.3,1.5,11,1.7,16.7
												C338.2,89.7,340.9,77.8,338.6,64.5z"/>
										</g>
										<path class="st14" d="M351.8,46.6c-0.6-7.1-3.2-21.7-18.6-16.8h0c-3.6-4.3-9.1-8.8-15.9-8.9c-12.9-0.1-25.7,0.7-34.8-3.9
											c-9-4.6-11.9,30.3,8.6,40.1c0.1,8.5,1.6,13.1,1.6,13.1c0-2.4,0.5-12.3,0.5-12.3s24.5-0.1,28.1-5.3c0,0.7,0.9,8.1,7.2,8.2
											c0.1,3.5,4.2,10.5,4.3,14.9c0.1,4.4-3.5,4.1-5.6,11.6c-19.1-5.4-26.8-3.7-36,1.4c-3.4,15.7,5.6,25.9,15.2,26.3
											c9.5,0.4,22.1-4.1,26.3-11.2c4.2-7.1,4.4-13.4,3.6-19.3c-0.7-5,1.2-10.2,2.2-10.7c1-0.5,5.2,4.6,5.2,4.6s8.8-8.7,8.4-22.6
											C352.5,48.3,351.8,46.6,351.8,46.6z"/>
										<g>
											<g>
												<path class="st32" d="M329.5,34.3c-1-2.1-2.8-3.7-4.7-4.7c-2-1-4.1-1.6-6.3-1.7c-0.5-0.1-1.1,0-1.6-0.1l-0.8,0l-0.8,0
													l-1.6,0.1l-1.6,0.2l-3.3,0.5l-0.8,0.1l-0.8,0l-1.7,0.1c-0.6,0-1.1,0-1.7,0c-0.6,0-1.1,0-1.7-0.1
													c-1.1-0.1-2.2-0.2-3.3-0.5c-2.2-0.4-4.3-1.1-6.3-2c-2.1-0.9-4-2-5.9-3.2c-0.9-0.6-1.8-1.3-2.7-2.1
													c-0.8-0.8-1.7-1.5-2.4-2.5c0.7,0.9,1.6,1.7,2.4,2.4c0.9,0.7,1.8,1.4,2.7,2c1.9,1.2,3.8,2.3,5.9,3.1
													c4.1,1.7,8.4,2.6,12.8,2.5l1.6-0.1l0.8,0l0.8-0.1l3.3-0.4l1.6-0.2l1.7-0.1l0.8,0l0.8,0c0.6,0,1.1,0,1.7,0.1
													c2.2,0.2,4.4,0.8,6.4,1.9C326.8,30.5,328.6,32.1,329.5,34.3z"/>
												<path class="st32" d="M279.1,20.4c1.1,2.1,2.4,4.1,3.9,5.9c1.5,1.8,3.1,3.5,4.9,4.9c3.6,2.8,7.9,4.8,12.3,5l1.7,0.1
													c0.6,0,1.1,0,1.7,0c1.1,0,2.2,0,3.4-0.1c2.2-0.1,4.5-0.2,6.7-0.4c2.2-0.2,4.5-0.4,6.7-0.5c1.1,0,2.3,0,3.4,0.3
													c1.1,0.2,2.2,0.8,2.9,1.8c-0.8-0.9-1.8-1.5-2.9-1.7c-1.1-0.2-2.2-0.2-3.3-0.2c-2.2,0.1-4.5,0.4-6.7,0.6
													c-2.2,0.2-4.5,0.4-6.7,0.5c-1.1,0-2.2,0.1-3.4,0.1c-0.6,0-1.1,0-1.7,0l-1.7-0.1c-4.5-0.3-8.9-2.3-12.5-5.2
													C284.1,28.5,281.2,24.7,279.1,20.4z"/>
												<path class="st32" d="M278.5,23.7c1.6,4.4,4.2,8.4,7.3,11.7c3.2,3.2,7,5.7,11.3,7c2.1,0.7,4.2,1.2,6.4,1.6
													c2.2,0.4,4.3,0.7,6.5,1c2.2,0.2,4.4,0.3,6.6,0.2c2.2-0.1,4.4-0.3,6.5-1c-2.1,0.8-4.3,1-6.5,1.2
													c-2.2,0.1-4.4,0.1-6.6-0.1c-2.2-0.2-4.4-0.5-6.6-0.9c-2.2-0.4-4.3-0.9-6.5-1.6c-4.2-1.4-8.1-3.9-11.3-7.2
													C282.4,32.3,279.9,28.2,278.5,23.7z"/>
												<path class="st32" d="M277.8,28.9c0.6,2,1.4,4,2.4,5.8c0.9,1.9,2,3.6,3.2,5.3c2.4,3.3,5.4,6.2,8.7,8.3
													c1.7,1.1,3.4,2.1,5.2,2.8c0.5,0.2,0.9,0.4,1.4,0.5c0.5,0.2,0.9,0.3,1.4,0.5c0.9,0.3,1.9,0.6,2.8,0.8
													c3.8,0.9,7.8,1.2,11.7,1c-3.9,0.3-7.9,0.1-11.7-0.7c-1-0.2-1.9-0.5-2.9-0.7c-0.5-0.1-0.9-0.3-1.4-0.5
													c-0.5-0.2-0.9-0.3-1.4-0.5c-1.9-0.7-3.6-1.7-5.3-2.8c-3.4-2.2-6.4-5.1-8.8-8.5C280.8,36.8,278.9,33,277.8,28.9z"/>
											</g>
											<path class="st32" d="M334,33.7c2.4,0.6,4.6,1.8,6.7,3.2c2,1.5,3.9,3.3,5.4,5.4c0.4,0.5,0.7,1.1,1,1.6
												c0.3,0.6,0.7,1.1,0.9,1.7l0.8,1.8c0.2,0.6,0.4,1.2,0.6,1.9c0.5,1.2,0.6,2.5,0.9,3.8c0.2,1.3,0.3,2.6,0.4,3.9
												c-0.2-1.3-0.3-2.6-0.6-3.9c-0.3-1.3-0.5-2.6-1-3.8c-0.8-2.5-2-4.8-3.5-6.8c-1.4-2.1-3.2-3.9-5.2-5.4
												c-0.5-0.4-1-0.7-1.5-1.1c-0.5-0.3-1.1-0.6-1.6-0.9C336.3,34.7,335.2,34.1,334,33.7z"/>
											<path class="st32" d="M330.3,39.2c2.6,0,5.1,1,7.3,2.5c2.2,1.5,4.1,3.4,5.7,5.6c1.6,2.2,3,4.6,3.9,7.1
												c1,2.6,1.6,5.3,1.9,8c-0.4-2.7-1.1-5.4-2.1-7.9c-1-2.5-2.4-4.9-4-7c-1.6-2.1-3.5-4-5.6-5.6c-1.1-0.7-2.2-1.4-3.4-1.9
												C332.9,39.6,331.6,39.4,330.3,39.2z"/>
											<path class="st32" d="M326,45.4c1.1,0.3,2.2,0.7,3.3,1.2c1.1,0.5,2.1,1.1,3.1,1.8c2,1.4,3.8,3,5.4,4.9
												c0.4,0.5,0.8,1,1.1,1.5c0.4,0.5,0.7,1,1.1,1.5l1,1.6l0.9,1.7l0.4,0.8c0.1,0.3,0.2,0.6,0.4,0.9l0.7,1.7
												c0.4,1.2,0.7,2.4,1.1,3.6c-0.4-1.2-0.8-2.4-1.3-3.5l-0.8-1.7c-0.1-0.3-0.2-0.6-0.4-0.8l-0.4-0.8l-0.9-1.6l-1-1.5
												c-0.3-0.5-0.7-1-1.1-1.5c-0.4-0.5-0.7-1-1.1-1.4c-1.5-1.9-3.3-3.5-5.3-4.9C330.4,47.4,328.3,46.2,326,45.4z"/>
										</g>
										<g>
											<path class="st33" d="M315.6,92.4c-1.2,0-2.4-0.3-3.6-1c-4.7-2.9-7.6-1.4-9.7-0.2c-0.3,0.1-0.5,0.3-0.8,0.4
												c-2.3,1.1-3.6-0.7-3.6-0.8c-0.1-0.1,0-0.2,0-0.3c0.1-0.1,0.2,0,0.3,0c0,0.1,1.2,1.6,3.1,0.6c0.2-0.1,0.5-0.3,0.8-0.4
												c2.1-1.1,5.2-2.8,10.1,0.2c3.6,2.4,8,0,8.9-1.6c0.1-0.1,0.2-0.1,0.3-0.1c0.1,0.1,0.1,0.2,0.1,0.3
												C320.7,91,318.2,92.4,315.6,92.4z"/>
										</g>
										<g>
											<path class="st33" d="M310.4,94.1c0,0-0.1,0-0.1,0c-3.4-2.9-5.8-0.4-5.8-0.4c-0.1,0.1-0.2,0.1-0.3,0
												c-0.1-0.1-0.1-0.2,0-0.3c0,0,2.7-2.7,6.3,0.3c0.1,0.1,0.1,0.2,0,0.3C310.5,94.1,310.4,94.1,310.4,94.1z"/>
										</g>
										<g>
											<path class="st32" d="M331.7,83.5c0.6,0.4,1.1,0.9,1.6,1.3c0.5,0.5,1,1,1.4,1.7c-0.6-0.4-1.1-0.9-1.6-1.3
												C332.5,84.6,332.1,84.1,331.7,83.5z"/>
											<path class="st32" d="M330.3,85.8c0.9,1.3,1.7,2.7,2.5,4.1c0.8,1.4,1.5,2.9,2.1,4.4c-0.9-1.3-1.7-2.7-2.5-4.1
												C331.7,88.7,331,87.3,330.3,85.8z"/>
											<path class="st34" d="M327.5,89.9c1,1.3,1.9,2.8,2.8,4.2c0.9,1.4,1.7,2.9,2.4,4.4c-1-1.3-1.9-2.8-2.8-4.2
												C329.1,92.9,328.3,91.4,327.5,89.9z"/>
											<path class="st32" d="M324.7,93.4c1.1,1.5,2.2,3.2,3.2,4.8c1,1.6,2,3.3,2.8,5c-1.1-1.5-2.2-3.2-3.2-4.8
												C326.5,96.8,325.5,95.1,324.7,93.4z"/>
											<path class="st32" d="M320,95.5c1.3,1.8,2.4,3.7,3.6,5.5c1.1,1.9,2.3,3.8,3.3,5.8c-1.3-1.8-2.4-3.7-3.6-5.5
												C322.2,99.4,321.1,97.5,320,95.5z"/>
											<path class="st32" d="M318.2,99.9c0.9,1.3,1.7,2.6,2.4,4c0.7,1.4,1.5,2.8,2.1,4.2c-0.9-1.3-1.7-2.6-2.4-4
												C319.6,102.8,318.9,101.4,318.2,99.9z"/>
											<path class="st32" d="M314.8,102.1c0.7,0.8,1.2,1.6,1.7,2.4c0.5,0.9,1,1.7,1.4,2.7c-0.7-0.8-1.2-1.6-1.7-2.4
												C315.7,103.9,315.2,103.1,314.8,102.1z"/>
											<path class="st32" d="M309.7,102.8c0.7,0.9,1.2,1.9,1.8,2.9c0.5,1,1,2,1.5,3.1c-0.7-0.9-1.2-1.9-1.8-2.9
												C310.6,104.9,310.1,103.9,309.7,102.8z"/>
											<line class="st32" x1="306.1" y1="105.1" x2="308.3" y2="109.2"/>
										</g>
										<g>
											<path class="st15" d="M337.4,75c0.2-1.1,4.7-8.6,7.1-4.7c2.4,3.9-0.5,13.9-3.5,15.2c-2.9,1.3-4.1-1-4-3.4
												C337.2,79.6,337.4,75,337.4,75z"/>
										</g>
										<path class="st16" d="M342.9,81.2c0,0,1.9-4.3,1.5-7.1c-0.3-2.7-3.2-2.3-4.1-0.3c-0.9,2-2.1,5.3-1.1,6.9
											c1,1.6,2.4-1.1,2.1-2.2c-0.3-1-1.2-1-1.2-1c0.7-1.1,2.4-0.2,2.5,0.7c0.2-1.3-1.8-3-2.5-1.5c0.9-2.6,1.8-3.9,2.9-3.4
											C344.2,73.7,343.9,77.5,342.9,81.2z"/>
										<g>
											<path class="st30" d="M309.7,82.6c-0.3,0.2-0.8,0.4-1.3,0.4c-2,0.1-4.3-0.1-5.1-3.4c-0.2-0.7-0.1-1.3,0.1-1.7
												c0.4-0.6,1.2-0.8,1.9-1c0.5-0.1,1-0.2,1.3-0.4c0.9-0.6,0.8-2.9,0.7-3.7c0-0.1,0.1-0.2,0.2-0.3c0.1,0,0.2,0.1,0.2,0.2
												c0,0.1,0.4,3.3-0.9,4.1c-0.4,0.3-0.9,0.4-1.4,0.5c-0.7,0.1-1.4,0.3-1.7,0.8c-0.2,0.3-0.2,0.8-0.1,1.4
												c0.5,2.3,1.9,3.2,4.6,3.1c0.9-0.1,1.5-0.4,1.8-1.1c0.3-0.6,0.2-1.3,0.2-1.5c-0.1-0.1,0-0.2,0.1-0.3
												c0.1-0.1,0.2,0,0.3,0.1c0.2,0.3,0.2,1.2-0.1,1.9C310.3,82,310.1,82.4,309.7,82.6z"/>
										</g>
										<g>
											<path class="st30" d="M323.9,72.6C323.9,72.6,323.8,72.6,323.9,72.6c-0.2,0-0.3-0.1-0.3-0.2c-0.1-0.6-0.5-1.9-1.4-2.7
												c-0.6-0.5-1.4-0.7-2.2-0.6c-2.3,0.4-2.8,2.2-2.8,2.3c0,0.1-0.1,0.2-0.3,0.2c-0.1,0-0.2-0.2-0.1-0.3
												c0-0.1,0.6-2.1,3.2-2.6c0.9-0.2,1.8,0.1,2.5,0.7c0.9,0.8,1.5,2.1,1.6,3C324,72.5,324,72.5,323.9,72.6z"/>
										</g>
										<g>
											<path class="st30" d="M303.6,71.5C303.6,71.6,303.6,71.6,303.6,71.5c-0.1,0.1-0.3,0-0.3-0.1c0-0.1-0.7-2.2-3.2-1.9
												c-2.5,0.3-2.9,2.8-2.9,2.9c0,0.1-0.1,0.2-0.2,0.2c-0.1,0-0.2-0.1-0.2-0.3c0,0,0.5-2.9,3.3-3.2c2.8-0.3,3.6,2.2,3.6,2.2
												C303.7,71.4,303.7,71.5,303.6,71.5z"/>
										</g>
									</g>
								</g>
								<g>
									<path class="st14" d="M324.5,67.3c0,0-4.2-1.4-7.7-1.3c-3.5,0.1-3.6-2.1-1.7-3.2C317,61.6,323,64.2,324.5,67.3z"/>
								</g>
								<g>
									<path class="st14" d="M295.9,67.9c0,0,2.3-1.9,5.8-1.9c3.5,0,3.6-2.2,1.6-3.3C301.4,61.6,297.3,64.8,295.9,67.9z"/>
								</g>
							</g>
						</g>
					</g>
				</g>
			</g>
			<path class="st25" d="M298.1,248.5c0.6,0.3,1.1,0.8,1.4,1.5c0.1,0.3,0.2,0.7,0.2,1.1c0,0.4-0.1,0.7-0.3,1c0.1-0.4,0.1-0.7,0.1-1
				c0-0.3-0.1-0.7-0.2-1c-0.1-0.3-0.3-0.6-0.5-0.9C298.6,248.9,298.3,248.7,298.1,248.5z"/>
		</g>
		<g>
			<path class="st1" d="M481.9,420.2c0,4.2-25.9,7.5-57.8,7.5c-31.9,0-57.8-3.4-57.8-7.5c0-4.2,25.9-7.5,57.8-7.5
				C456,412.7,481.9,416.1,481.9,420.2z"/>
			<g>
				<g>
					<g>
						<path class="st2" d="M415.2,227.5c0,0,5.2-47.9-19.9-64.6c-25.1-16.7-30.4-13-30.4-4.3C364.8,167.3,371.5,199,415.2,227.5z"/>
						<g>
							<path class="st3" d="M423.1,275.3c-0.3,0-0.5-0.2-0.5-0.5c-6.2-76.8-45.4-114.2-45.8-114.6c-0.2-0.2-0.3-0.6-0.1-0.8
								c0.2-0.2,0.5-0.3,0.8-0.1c0.4,0.4,40,38.1,46.2,115.4C423.7,274.9,423.4,275.2,423.1,275.3
								C423.1,275.3,423.1,275.3,423.1,275.3z"/>
						</g>
					</g>
					<g>
						<path class="st2" d="M423.2,189c0,0-8.5-38.9,4.1-57.2c12.6-18.2,27.4-17.9,32.2-14.9c4.8,3,4.5,24.1-8,36.5
							C439,165.9,423.3,183.8,423.2,189z"/>
						<g>
							<path class="st3" d="M430.3,271.1c-0.2,0-0.4-0.1-0.5-0.4c-0.1-0.3-10.3-31.7-7.2-81.8c3.1-50.3,30.2-66.1,30.5-66.3
								c0.3-0.1,0.6,0,0.7,0.2c0.1,0.3,0,0.6-0.2,0.8c-0.3,0.2-26.9,15.7-29.9,65.3c-3.1,49.8,7,81,7.1,81.3c0.1,0.3,0,0.6-0.3,0.7
								C430.5,271.1,430.4,271.1,430.3,271.1z"/>
						</g>
					</g>
					<g>
						<path class="st2" d="M431.4,236.7c0,0-6.1-47.5,10.8-67.7c16.9-20.2,34.6-18.1,40-13.9c5.4,4.2,2.9,29.3-13.3,42.6
							C452.7,211,432.1,230.4,431.4,236.7z"/>
						<g>
							<path class="st3" d="M438,272.3c-0.2,0-0.4-0.1-0.5-0.4c-0.1-0.2-6.6-17.8-6.6-35.2c0-45.3,43.1-77.2,43.5-77.5
								c0.2-0.2,0.6-0.1,0.8,0.2c0.2,0.3,0.1,0.6-0.1,0.8c-0.4,0.3-43,31.8-43,76.5c0,17.2,6.5,34.6,6.5,34.8c0.1,0.3,0,0.6-0.3,0.8
								C438.1,272.3,438.1,272.3,438,272.3z"/>
						</g>
					</g>
				</g>
				<g>
					<g>
						<g>
							<g>
								<polygon class="st4" points="386.5,420.2 395.8,359.8 386.1,359.8 376.8,420.2 								"/>
								<polygon class="st4" points="474.3,420.2 465,359.8 455.3,359.8 464.6,420.2 								"/>
							</g>
							<rect x="384.6" y="395.4" class="st4" width="82" height="11.8"/>
						</g>
						<rect x="376.4" y="339.3" class="st5" width="98.3" height="26.5"/>
					</g>
					<g>
						<path class="st6" d="M453.6,339.3c6.8-9.6,11-22.8,11-37.4c0-17.5-6.1-33.1-15.5-42.8h-45.7c-9.4,9.7-15.5,25.3-15.5,42.8
							c0,14.6,4.2,27.7,11,37.4H453.6z"/>
						<path class="st7" d="M431.2,339.3h22.4c6.8-9.6,11-22.8,11-37.4c0-17.5-6.1-33.1-15.5-42.8h-45.7c-3.6,3.7-6.7,8.3-9.1,13.5
							c5.7-4,16.2-7.7,34.6-4.4C459.4,273.6,454.1,322.5,431.2,339.3z"/>
					</g>
				</g>
			</g>
		</g>
	</g>
</g>
</svg>
